HIERARCHY
ROOT Hips
{
	OFFSET 0.00000 0.00000 0.00000
	CHANNELS 6 Xposition Yposition Zposition Zrotation Yrotation Xrotation 
	JOINT LHipJoint
	{
		OFFSET 0 0 0
		CHANNELS 3 Zrotation Yrotation Xrotation
		JOINT LeftUpLeg
		{
			OFFSET 1.36306 -1.79463 0.83929
			CHANNELS 3 Zrotation Yrotation Xrotation
			JOINT LeftLeg
			{
				OFFSET 2.44811 -6.72613 0.00000
				CHANNELS 3 Zrotation Yrotation Xrotation
				JOINT LeftFoot
				{
					OFFSET 2.56220 -7.03959 0.00000
					CHANNELS 3 Zrotation Yrotation Xrotation
					JOINT LeftToeBase
					{
						OFFSET 0.15764 -0.43311 2.32255
						CHANNELS 3 Zrotation Yrotation Xrotation
						End Site
						{
							OFFSET 0.00000 -0.00000 1.18966
						}
					}
				}
			}
		}
	}
	JOINT RHipJoint
	{
		OFFSET 0 0 0
		CHANNELS 3 Zrotation Yrotation Xrotation
		JOINT RightUpLeg
		{
			OFFSET -1.30552 -1.79463 0.83929
			CHANNELS 3 Zrotation Yrotation Xrotation
			JOINT RightLeg
			{
				OFFSET -2.54253 -6.98555 0.00000
				CHANNELS 3 Zrotation Yrotation Xrotation
				JOINT RightFoot
				{
					OFFSET -2.56826 -7.05623 0.00000
					CHANNELS 3 Zrotation Yrotation Xrotation
					JOINT RightToeBase
					{
						OFFSET -0.16473 -0.45259 2.36315
						CHANNELS 3 Zrotation Yrotation Xrotation
						End Site
						{
							OFFSET -0.00000 -0.00000 1.21082
						}
					}
				}
			}
		}
	}
	JOINT LowerBack
	{
		OFFSET 0 0 0
		CHANNELS 3 Zrotation Yrotation Xrotation
		JOINT Spine
		{
			OFFSET 0.02827 2.03559 -0.19338
			CHANNELS 3 Zrotation Yrotation Xrotation
			JOINT Spine1
			{
				OFFSET 0.05672 2.04885 -0.04275
				CHANNELS 3 Zrotation Yrotation Xrotation
				JOINT Neck
				{
					OFFSET 0 0 0
					CHANNELS 3 Zrotation Yrotation Xrotation
					JOINT Neck1
					{
						OFFSET -0.05417 1.74624 0.17202
						CHANNELS 3 Zrotation Yrotation Xrotation
						JOINT Head
						{
							OFFSET 0.10407 1.76136 -0.12397
							CHANNELS 3 Zrotation Yrotation Xrotation
							End Site
							{
								OFFSET 0.03720 1.77044 -0.06241
							}
						}
					}
				}
				JOINT LeftShoulder
				{
					OFFSET 0 0 0
					CHANNELS 3 Zrotation Yrotation Xrotation
					JOINT LeftArm
					{
						OFFSET 3.36241 1.20089 -0.31121
						CHANNELS 3 Zrotation Yrotation Xrotation
						JOINT LeftForeArm
						{
							OFFSET 4.98300 -0.00000 -0.00000
							CHANNELS 3 Zrotation Yrotation Xrotation
							JOINT LeftHand
							{
								OFFSET 3.48356 -0.00000 -0.00000
								CHANNELS 3 Zrotation Yrotation Xrotation
								JOINT LeftFingerBase
								{
									OFFSET 0 0 0
									CHANNELS 3 Zrotation Yrotation Xrotation
									JOINT LeftHandIndex1
									{
										OFFSET 0.71526 -0.00000 -0.00000
										CHANNELS 3 Zrotation Yrotation Xrotation
										End Site
										{
											OFFSET 0.57666 -0.00000 -0.00000
										}
									}
								}
								JOINT LThumb
								{
									OFFSET 0 0 0
									CHANNELS 3 Zrotation Yrotation Xrotation
									End Site
									{
										OFFSET 0.58547 -0.00000 0.58547
									}
								}
							}
						}
					}
				}
				JOINT RightShoulder
				{
					OFFSET 0 0 0
					CHANNELS 3 Zrotation Yrotation Xrotation
					JOINT RightArm
					{
						OFFSET -3.13660 1.37405 -0.40465
						CHANNELS 3 Zrotation Yrotation Xrotation
						JOINT RightForeArm
						{
							OFFSET -5.24190 -0.00000 -0.00000
							CHANNELS 3 Zrotation Yrotation Xrotation
							JOINT RightHand
							{
								OFFSET -3.44417 -0.00000 -0.00000
								CHANNELS 3 Zrotation Yrotation Xrotation
								JOINT RightFingerBase
								{
									OFFSET 0 0 0
									CHANNELS 3 Zrotation Yrotation Xrotation
									JOINT RightHandIndex1
									{
										OFFSET -0.62253 -0.00000 -0.00000
										CHANNELS 3 Zrotation Yrotation Xrotation
										End Site
										{
											OFFSET -0.50190 -0.00000 -0.00000
										}
									}
								}
								JOINT RThumb
								{
									OFFSET 0 0 0
									CHANNELS 3 Zrotation Yrotation Xrotation
									End Site
									{
										OFFSET -0.50956 -0.00000 0.50956
									}
								}
							}
						}
					}
				}
			}
		}
	}
}
MOTION
Frames: 15
Frame Time: 0.00636943
0.00 0.00 0.00 0 0 0 0 0 0 -21 0 0 0 0 0 0 0 0 0 0 0 0 0 0 21 0 0 0 0 0 0 0 0 0 0 0 0 0 0 0 0 0 0 0 0 0 0 -16 0 0 21 0 0 11 0 0 0 -8 0 0 0 0 0 0 0 0 0 0 0 0 0 0 0 0 0 0 0 0 8 0 0 0 0 0 0 0 0 0 0 0 0 0 0 0 0 0
0.00 0.00 0.00 -172.4060 -69.4190 174.0060 0.0000 0.0000 0.0000 -12.1105 9.6260 5.0964 0.4272 4.1945 11.6245 1.0087 0.7073 -19.2490 0.0498 -1.4407 -3.9624 0.0000 0.0000 0.0000 8.6412 17.5482 -22.6484 -1.5722 -7.9115 22.4458 -0.4619 -13.8155 -24.2128 -0.2862 -3.4403 9.5070 -4.1584 1.3523 8.5997 2.5251 1.3978 2.9484 4.8275 0.6351 -1.9236 -5.4557 -4.9974 -9.2314 10.9849 -6.2479 -9.1685 4.4505 -3.2498 -0.7758 -0.0000 -0.0000 0.0000 -73.1522 -16.0824 22.7786 22.1334 -33.1275 -6.6586 -0.0000 -0.0000 1.5460 18.1578 -9.6189 -3.1368 -7.1250 0.0000 -0.0000 -6.2866 19.8973 3.7944 -0.0000 -0.0000 0.0000 71.4558 4.4120 -0.2771 -35.1651 44.9297 -14.9298 0.0000 0.0000 177.6260 -28.6891 17.5561 -9.3732 7.1250 -0.0000 -0.0000 -0.4673 -10.1484 -0.3777
0.00 0.00 0.00 -171.5270 -69.5564 171.1130 0.0000 0.0000 0.0000 -8.8885 7.7786 20.8786 0.0000 -0.0000 -0.0000 0.1109 10.2063 -16.1809 0.7250 -5.4404 -15.1692 0.0000 0.0000 0.0000 11.2364 10.9162 -22.9723 -1.8478 -8.5416 24.3715 0.0827 -8.4556 -10.2658 -0.0319 -1.1537 3.1718 -2.2899 0.7849 11.2622 2.8750 0.7631 2.5027 4.1953 0.3501 -3.7684 -6.0061 -4.8356 -9.4939 9.9517 -5.9991 -9.2879 4.1940 -3.0930 -0.8138 0.0000 0.0000 0.0000 -54.0227 -35.4692 13.0392 38.3324 -47.0503 -17.2085 -0.0000 0.0000 -2.0697 24.6136 -9.3618 -4.2619 -7.1250 0.0000 -0.0000 -1.6687 19.7036 1.0088 0.0000 0.0000 0.0000 57.7221 19.3266 -3.3741 -54.5365 54.6690 -29.8375 0.0000 0.0000 168.2240 -29.6283 19.4363 -10.7165 7.1250 -0.0000 -0.0000 -0.8430 -7.8874 -0.7194
0.00 0.00 0.00 -166.0330 -69.1244 165.1220 0.0000 0.0000 0.0000 -6.5130 2.7856 18.7376 0.6096 4.9973 13.9008 -0.2448 14.0552 -16.8642 0.7494 -5.5293 -15.4245 0.0000 0.0000 0.0000 16.7226 6.1110 -21.6607 -2.0960 -9.0632 25.9932 0.0345 -4.7273 -5.3324 -0.2083 -2.9385 8.1075 0.7927 0.4722 12.7278 3.2455 0.7588 2.0105 2.8398 0.3180 -5.0580 -5.8974 -4.5071 -9.5699 8.9626 -5.5890 -8.7652 3.8257 -2.8607 -0.7010 -0.0000 0.0000 0.0000 -34.6649 -45.4659 -0.4288 44.1182 -50.3291 -21.5578 -0.0000 -0.0000 4.3371 26.0157 -13.7459 -6.6153 -7.1250 0.0000 -0.0000 -0.9517 14.7540 0.6780 -0.0000 0.0000 0.0000 50.1996 31.7700 -5.3469 -71.2905 58.6351 -43.8714 0.0000 0.0000 166.7040 -29.7821 32.1510 -16.9379 7.1250 -0.0000 -0.0000 1.1650 5.9253 1.2793
0.00 0.00 0.00 -165.4900 -69.1047 164.5690 0.0000 0.0000 0.0000 -6.2204 1.9548 16.3102 1.1528 6.8172 19.1750 -0.4595 15.1723 -15.6411 0.8404 -5.8475 -16.3427 0.0000 0.0000 0.0000 17.6093 5.2322 -20.8350 -2.0348 -8.9382 25.6022 0.0096 -4.0736 -5.4014 -0.2479 -3.2035 8.8459 0.9886 0.5534 12.6899 3.3468 0.9042 1.8831 2.8118 0.3886 -5.1765 -5.6566 -4.8439 -9.6087 8.5722 -6.0669 -8.7207 3.6205 -3.1006 -0.6644 -0.0000 -0.0000 0.0000 -31.0740 -47.3099 -3.2686 44.8550 -50.6973 -22.1265 -0.0000 -0.0000 4.8465 25.9217 -13.1641 -6.3164 -7.1250 0.0000 -0.0000 -0.9726 15.4043 0.6794 -0.0000 -0.0000 0.0000 48.4706 34.0831 -4.9528 -69.8026 58.4011 -42.6024 0.0000 0.0000 156.2800 -17.7421 37.0753 -10.9175 7.1250 -0.0000 -0.0000 8.5817 8.0648 9.8040
0.00 0.00 0.00 -157.7560 -68.7359 156.8410 0.0000 0.0000 0.0000 -1.8409 -0.0218 7.6170 4.0219 12.1895 36.4057 -0.6428 15.0097 -11.2978 0.1669 2.6323 7.2567 0.0000 0.0000 0.0000 23.0974 2.9206 -15.3555 -1.4068 -7.5022 21.2120 0.0302 -4.4675 -5.0714 -0.1185 -2.2197 6.1131 3.8044 0.7269 12.8988 4.0236 1.5682 1.4262 1.8253 0.6470 -5.7454 -5.9422 -4.9342 -9.1660 8.3061 -6.1599 -7.1776 3.5577 -3.0901 -0.2284 -0.0000 -0.0000 0.0000 -15.9460 -52.8435 -13.5091 45.1038 -50.8192 -22.3192 -0.0000 -0.0000 4.7523 29.8468 -13.8025 -7.7949 -7.1250 0.0000 -0.0000 1.6458 14.1702 -1.1933 -0.0000 -0.0000 0.0000 40.6007 41.0751 6.6885 -75.0774 59.1416 -47.1139 0.0000 -0.0000 -6.5650 -13.3010 -55.8530 11.0702 7.1250 -0.0000 -0.0000 78.1256 -76.7689 -64.5249
0.00 0.00 0.00 -154.0570 -68.3888 152.3340 0.0000 0.0000 0.0000 -0.2736 -2.0255 -3.9290 8.4164 16.4171 54.0489 -0.1532 7.2352 -4.8902 0.7052 5.3675 14.9598 0.0000 0.0000 0.0000 27.0830 0.0055 -7.3034 -0.7930 -5.6844 15.8713 0.0078 -4.7673 -6.5230 -0.4655 -4.3764 12.1382 7.0105 1.4310 13.9202 4.2870 3.0367 1.3519 0.0323 1.2559 -6.2449 -6.2359 -5.4151 -9.3556 7.1804 -6.7633 -5.7882 3.1692 -3.3427 0.2623 -0.0000 0.0000 0.0000 13.1731 -57.6276 -38.6741 41.6025 -48.9912 -19.6401 -0.0000 -0.0000 5.7887 30.0814 -17.3870 -9.8202 -7.1250 0.0000 -0.0000 1.3950 10.0907 -1.1293 -0.0000 0.0000 0.0000 16.8486 52.3719 -8.5630 -64.3412 57.3599 -37.9758 0.0000 -0.0000 -14.2820 -22.2176 -12.1032 4.8949 7.1250 -0.0000 -0.0000 4.5422 -42.9764 0.2273
0.00 0.00 0.00 -153.1120 -71.0139 151.7040 0.0000 0.0000 0.0000 -3.2936 -3.8445 -13.4375 7.7553 15.9363 51.6764 -0.0957 -8.0901 -3.3954 0.0158 -0.8125 -2.2330 0.0000 0.0000 0.0000 27.7365 -0.5617 -5.5593 -1.3302 -7.3036 20.6180 -0.2812 -4.9664 -13.0852 -0.7067 -5.3731 14.9759 7.1822 1.5904 13.6911 4.4307 3.3024 0.9969 0.0443 1.3758 -6.4862 -6.6465 -4.7108 -10.3923 5.1936 -5.7132 -2.8267 2.5752 -2.7775 1.2670 -0.0000 -0.0000 0.0000 35.4965 -56.3618 -64.1404 36.2412 -45.6784 -15.6948 -0.0000 0.0000 -0.6549 33.0645 -10.2519 -6.6091 -7.1250 0.0000 -0.0000 4.2331 17.8214 -2.7420 -0.0000 -0.0000 0.0000 -14.9973 60.8440 -38.9466 -50.8162 53.3194 -26.8273 0.0000 -0.0000 -15.1470 -24.7544 -19.0243 8.5478 7.1250 -0.0000 -0.0000 3.5027 -50.7384 -0.4958
0.00 0.00 0.00 -143.7500 -74.7392 142.8810 0.0000 0.0000 0.0000 -7.3355 -2.5082 -20.7943 3.8487 11.9564 35.5778 0.3850 -2.1078 -11.1809 0.0125 -0.7220 -1.9841 0.0000 0.0000 0.0000 29.8100 -2.2839 -2.5435 -1.6296 -8.0477 22.8589 -0.5402 -7.8828 -18.9398 -0.2846 -3.4310 9.4811 8.2968 2.1019 13.7562 4.5386 4.1751 0.8706 -0.6187 1.7638 -6.5467 -5.1852 -4.3139 -9.6418 3.6377 -5.3294 -0.8155 1.8175 -2.6070 1.6581 -0.0000 0.0000 0.0000 47.5602 -53.8501 -76.4857 32.6737 -43.0777 -13.1987 -0.0000 -0.0000 6.6955 39.6162 -12.2831 -9.9872 -7.1250 0.0000 -0.0000 8.4084 14.3168 -6.1357 -0.0000 0.0000 0.0000 -40.3124 54.9295 -59.5696 -39.8780 47.9975 -18.3486 0.0000 -0.0000 -3.0310 -30.6335 -15.4441 8.9616 7.1250 -0.0000 -0.0000 -2.8963 -47.7594 0.1973
0.00 0.00 0.00 -142.3030 -78.4935 138.8040 0.0000 0.0000 0.0000 -15.4447 -0.0935 -19.8170 2.9733 10.6517 31.1141 0.0663 -5.6730 -5.6899 0.8693 5.9447 16.6241 0.0000 0.0000 0.0000 25.7396 -7.5765 -0.4219 -4.2841 -12.5292 37.6307 -0.4385 -7.5412 -17.4848 -0.0486 1.4231 -3.9138 5.0928 2.6802 13.6220 4.1735 4.3690 1.8873 0.7534 1.9945 -5.5806 -4.4775 -3.3528 -6.7380 3.8947 -4.3279 5.2717 1.8564 -2.1056 3.1040 0.0000 0.0000 0.0000 62.1612 -52.8163 -80.6839 30.6578 -41.4506 -11.8427 -0.0000 -0.0000 0.3047 2.8423 -9.1405 -0.4519 -7.1250 0.0000 -0.0000 -17.1381 20.9733 10.3320 0.0000 0.0000 0.0000 -56.9978 53.3162 -69.6064 -31.7955 42.3835 -12.6028 0.0000 0.0000 1.3080 -6.4747 -18.9838 2.1143 7.1250 -0.0000 -0.0000 20.8534 -47.9239 -1.5686
0.00 0.00 0.00 -148.4750 -79.0022 144.3920 0.0000 0.0000 0.0000 -17.2633 1.2754 -16.1800 3.0283 10.7406 31.4101 0.1890 -7.3115 -8.6582 0.9796 6.3003 17.6581 0.0000 0.0000 0.0000 23.0934 -5.1386 -7.1046 -8.3557 -16.3747 53.8339 0.1545 -9.1718 -9.7280 -0.0937 -1.9740 5.4337 4.2568 2.6072 15.4658 3.3943 4.1341 2.8744 0.3784 1.8824 -5.5459 -3.3533 -2.1238 -5.3545 2.4321 -2.7624 6.5416 1.2584 -1.3734 3.1378 0.0000 0.0000 0.0000 57.9927 -57.1123 -83.9478 41.9261 -49.1705 -19.8846 -0.0000 -0.0000 9.4463 -1.7769 -5.2755 0.1634 -7.1250 0.0000 -0.0000 -20.8906 24.6306 10.9995 0.0000 0.0000 0.0000 -56.6226 56.2384 -82.5792 -42.5831 49.5280 -20.3831 0.0000 0.0000 4.3550 -6.6590 -19.4088 2.2217 7.1250 -0.0000 -0.0000 20.8712 -48.3469 -1.7960
0.00 0.00 0.00 -137.2140 -78.8678 134.5050 0.0000 0.0000 0.0000 -13.8748 4.0482 -20.1765 6.2144 14.6329 45.8360 0.7262 -17.8239 -18.4637 0.5539 4.7676 13.2470 0.0000 0.0000 0.0000 24.8559 7.3463 -21.4784 -8.1270 -16.2119 53.0189 -0.8639 -2.2285 -18.4976 -0.0675 1.6758 -4.6105 5.0182 2.2515 23.5872 3.7535 4.2976 2.9240 -0.0267 1.7638 -9.8495 -3.7390 -2.5267 -2.3139 3.6938 -3.5574 8.1693 1.7357 -1.7816 3.1907 -0.0000 0.0000 0.0000 64.9533 -45.1958 -99.9042 56.8203 -55.4013 -31.7092 -0.0000 -0.0000 2.0861 -23.0614 5.1947 -2.2075 -7.1250 0.0000 -0.0000 -38.0508 32.5538 14.6065 -0.0000 0.0000 0.0000 -62.8940 43.1863 -94.7767 -57.7051 55.6668 -32.4387 0.0000 -0.0000 -3.5840 13.8403 -32.4549 -7.5314 7.1250 -0.0000 -0.0000 48.4934 -55.6606 -15.2380
0.00 0.00 0.00 -129.6490 -80.2472 123.4920 0.0000 0.0000 0.0000 -11.8082 5.6424 -23.7418 10.9234 17.8974 62.5325 1.0577 -23.9232 -23.4601 0.5990 4.9544 13.7787 0.0000 0.0000 0.0000 23.2421 6.1293 -26.9358 -12.2602 -18.4985 66.8111 -1.1792 -0.0927 -20.5716 -0.1742 2.6887 -7.4131 4.8554 1.8100 27.1969 4.0112 3.9013 3.1062 0.3825 1.5088 -11.6001 -5.5196 -2.2456 -2.9396 4.7089 -3.1769 9.1188 2.4239 -1.6147 3.7017 0.0000 -0.0000 0.0000 70.4179 -38.9060 -107.4367 43.6217 -50.0751 -21.1764 -0.0000 -0.0000 4.6620 -20.4575 3.4934 -1.3021 -7.1250 0.0000 -0.0000 -35.8006 31.3926 14.6020 0.0000 -0.0000 0.0000 -69.6576 35.5869 -99.5138 -41.5482 48.9608 -19.5991 0.0000 -0.0000 -1.8530 10.2736 -27.7260 -4.8202 7.1250 -0.0000 -0.0000 41.1751 -52.8017 -9.1514
0.00 0.00 0.00 -125.1320 -81.5035 114.8790 0.0000 0.0000 0.0000 -9.4125 6.8805 -23.9924 16.4504 19.6952 79.5709 0.8801 -30.1513 -25.8903 0.8501 5.8806 16.4384 0.0000 0.0000 0.0000 22.1063 2.6856 -27.0453 -17.4852 -19.8477 82.6292 -2.3282 -0.6827 -29.1403 -0.5240 4.6390 -12.8817 5.0123 1.7192 28.6241 3.8292 3.9905 2.5611 0.0133 1.5047 -12.9647 -10.5906 -1.7094 -6.0680 8.6235 -2.6521 16.0096 4.3226 -1.3835 6.0688 0.0000 0.0000 0.0000 72.9434 -29.5183 -101.8756 25.9052 -37.1149 -8.8304 -0.0000 0.0000 -0.7826 -16.2602 -2.4839 0.7242 -7.1250 0.0000 -0.0000 -31.2487 26.5357 16.4304 0.0000 0.0000 0.0000 -74.0732 26.9419 -94.4905 -25.3520 36.5616 -8.4987 0.0000 -0.0000 -3.7840 9.4323 -24.4910 -3.9396 7.1250 -0.0000 -0.0000 38.0458 -50.3675 -5.7666
0.00 0.00 0.00 -117.6030 -82.6636 103.7880 0.0000 0.0000 0.0000 -1.6022 10.4103 -17.0380 22.1807 19.8856 96.3876 -3.1383 -38.3637 -12.2968 0.4104 4.1125 11.3933 0.0000 0.0000 0.0000 18.4252 -5.6040 -20.1625 -23.0115 -19.7811 98.8361 -3.0833 2.0572 -32.7553 -1.2447 7.0739 -19.9345 4.4434 1.6785 24.4805 3.3228 3.7010 0.8773 -0.0440 1.4722 -12.7062 -5.7767 -1.8848 -2.3822 5.5659 -3.1945 15.1020 2.5151 -1.6625 5.0922 0.0000 -0.0000 0.0000 76.6824 -21.4659 -88.0615 15.7369 -25.1626 -3.5333 -0.0000 0.0000 -1.9224 0.5573 7.1145 0.0690 -7.1250 0.0000 -0.0000 -21.8074 36.2684 4.9792 0.0000 -0.0000 0.0000 -79.6776 21.6712 -94.5849 -15.2628 24.5110 -3.3342 0.0000 -0.0000 -0.3320 8.1436 -27.2745 -3.7518 7.1250 -0.0000 -0.0000 38.9559 -52.8255 -8.5421
